<svg xmlns="http://www.w3.org/2000/svg" data-name="LOGO CMM" viewBox="0 0 160 160" class="injected-svg">
  <path d="M80 0a80 80 0 1 0 80 80A80 80 0 0 0 80 0Z" style="fill:#f5b1ae"/>
  <path d="M104 82a2 2 0 0 0-2 3 10 10 0 0 1-20 0h1a8 8 0 0 0 2-1 10 10 0 0 0 3-4 5 5 0 0 0-8-6 5 5 0 0 0-9 6 10 10 0 0 0 4 4 8 8 0 0 0 2 1h1a10 10 0 0 1-20 0 2 2 0 0 0-4 0 14 14 0 0 0 14 14v1a12 12 0 1 0 24 0v-1a14 14 0 0 0 14-14 2 2 0 0 0-2-3Zm-17 18a7 7 0 0 1-14 0v-2a14 14 0 0 0 5-3v5a2 2 0 1 0 4 0v-5a14 14 0 0 0 5 3v2ZM55 73a2 2 0 0 0 3-2 3 3 0 1 1 5 0 2 2 0 0 0 4 0 7 7 0 1 0-14 0 2 2 0 0 0 2 2Zm40 0a2 2 0 0 0 2-2 3 3 0 1 1 5 0 2 2 0 0 0 5 0 7 7 0 1 0-15 0 2 2 0 0 0 3 2Z" style="fill:#231f20"/>
</svg>
