<svg xmlns="http://www.w3.org/2000/svg" width="64" height="64" viewBox="0 0 64 64" fill="none">
<path d="M49.3135 29.0446L34.7817 14.5128C34.1598 13.8937 33.3538 13.4931 32.4848 13.3713C31.6157 13.2495 30.7306 13.413 29.9625 13.8374V43.0631C29.9626 43.1968 29.9231 43.3274 29.8489 43.4386C29.7746 43.5498 29.6691 43.6364 29.5456 43.6876C29.4222 43.7388 29.2863 43.7521 29.1552 43.726C29.0241 43.6999 28.9037 43.6355 28.8092 43.541L17.6579 32.3829C17.5951 32.3202 17.5453 32.2457 17.5113 32.1637C17.4773 32.0817 17.4599 31.9938 17.4599 31.9051C17.4599 31.8163 17.4773 31.7284 17.5113 31.6464C17.5453 31.5644 17.5951 31.4899 17.6579 31.4272L19.4664 29.6204C19.593 29.4941 19.7646 29.4232 19.9434 29.4232C20.1223 29.4232 20.2938 29.4941 20.4204 29.6204L26.0552 35.2535V17.5083L14.5189 29.0446C13.759 29.8046 13.332 30.8354 13.332 31.9101C13.332 32.9849 13.759 34.0156 14.5189 34.7756L29.0507 49.3074C29.6725 49.9266 30.4786 50.3272 31.3476 50.449C32.2167 50.5708 33.1018 50.4072 33.8699 49.9828V20.7588C33.8694 20.6248 33.9088 20.4937 33.9831 20.3822C34.0574 20.2706 34.1632 20.1837 34.2871 20.1325C34.4109 20.0812 34.5472 20.068 34.6785 20.0945C34.8099 20.1209 34.9305 20.1858 35.0248 20.281L46.1694 31.4255C46.2322 31.4882 46.282 31.5627 46.316 31.6447C46.35 31.7267 46.3675 31.8146 46.3675 31.9034C46.3675 31.9921 46.35 32.08 46.316 32.162C46.282 32.244 46.2322 32.3185 46.1694 32.3812L44.3643 34.1964C44.3016 34.2592 44.2271 34.309 44.1451 34.343C44.0631 34.377 43.9752 34.3945 43.8864 34.3945C43.7977 34.3945 43.7098 34.377 43.6278 34.343C43.5458 34.309 43.4713 34.2592 43.4086 34.1964L37.7789 28.5617V46.3119L49.3135 34.7756C50.0734 34.0156 50.5003 32.9849 50.5003 31.9101C50.5003 30.8354 50.0734 29.8046 49.3135 29.0446Z" fill="#A862FE"/>
</svg>